<svg width="57" height="35" viewBox="0 0 57 35" fill="none" xmlns="http://www.w3.org/2000/svg">
<path d="M11.7964 34.7916C13.5602 34.7916 15.1856 33.7887 15.9464 32.2325L20.8572 22.4108C21.3414 21.4425 21.5835 20.405 21.5835 19.3329V3.66665C21.5835 1.76456 20.0272 0.208313 18.1252 0.208313H4.29183C2.38975 0.208313 0.833496 1.76456 0.833496 3.66665V17.5C0.833496 19.4021 2.38975 20.9583 4.29183 20.9583H11.2085L7.64641 28.0825C6.09016 31.1604 8.33808 34.7916 11.7964 34.7916ZM46.3797 34.7916C48.1435 34.7916 49.7689 33.7887 50.5297 32.2325L55.4406 22.4108C55.9247 21.4425 56.1668 20.405 56.1668 19.3329V3.66665C56.1668 1.76456 54.6106 0.208313 52.7085 0.208313H38.8752C36.9731 0.208313 35.4168 1.76456 35.4168 3.66665V17.5C35.4168 19.4021 36.9731 20.9583 38.8752 20.9583H45.7918L42.2297 28.0825C40.6735 31.1604 42.9214 34.7916 46.3797 34.7916Z" fill="#3342B5"/>
</svg>
